<svg xmlns="http://www.w3.org/2000/svg" xmlns:xlink="http://www.w3.org/1999/xlink" width="400" zoomAndPan="magnify" viewBox="0 0 1536 1535.999932" height="400" preserveAspectRatio="xMidYMid meet" version="1.0"><defs><g/><clipPath id="f343cbb40d"><path d="M 90.214844 661.117188 L 1485.214844 661.117188 L 1485.214844 874.867188 L 90.214844 874.867188 Z M 90.214844 661.117188 " clip-rule="nonzero"/></clipPath></defs><g fill="#ffffff" fill-opacity="1"><g transform="translate(151.919797, 1130.400118)"><g><path d="M 543.054688 -21.214844 C 543.054688 -10.078125 548.890625 0 560.027344 0 L 667.683594 0 C 679.351562 0 684.125 -10.605469 684.125 -21.214844 L 684.125 -561.617188 C 684.125 -663.441406 591.847656 -745.640625 485.78125 -745.640625 C 438.050781 -745.640625 392.972656 -729.203125 358.5 -701.625 C 323.5 -729.203125 278.421875 -745.640625 231.222656 -745.640625 C 125.15625 -745.640625 33.410156 -663.441406 33.410156 -561.617188 L 33.410156 -20.683594 C 33.410156 -9.546875 39.773438 0 47.199219 0 L 159.097656 0 C 171.828125 0 175.007812 -9.015625 175.007812 -20.683594 L 175.007812 -553.664062 C 175.007812 -587.074219 195.691406 -617.300781 231.753906 -617.300781 C 267.285156 -617.300781 287.96875 -587.074219 287.96875 -553.664062 L 287.96875 -20.683594 C 287.96875 -9.546875 294.863281 0 302.289062 0 L 414.1875 0 C 426.914062 0 429.566406 -9.015625 429.566406 -20.152344 L 429.566406 -555.785156 C 430.625 -588.132812 451.308594 -617.300781 486.3125 -617.300781 C 521.84375 -617.300781 543.054688 -587.074219 543.054688 -553.664062 Z M 543.054688 -21.214844 "/></g></g></g><g fill="#ffffff" fill-opacity="1"><g transform="translate(923.759634, 1130.400118)"><g><path d="M 179.25 -605.105469 L 231.753906 -605.105469 C 267.816406 -605.105469 292.742188 -584.421875 292.742188 -539.875 L 292.742188 -192.507812 C 292.742188 -156.445312 269.9375 -128.871094 234.40625 -127.808594 L 179.25 -127.808594 Z M 38.183594 -20.152344 C 38.183594 -7.425781 44.015625 0 56.214844 0 L 241.300781 0 C 349.488281 -1.0625 433.808594 -66.292969 433.808594 -188.265625 L 433.808594 -545.707031 C 433.808594 -667.152344 350.015625 -732.914062 240.238281 -733.972656 L 56.214844 -733.972656 C 45.078125 -733.972656 38.183594 -726.019531 38.183594 -713.292969 Z M 38.183594 -20.152344 "/></g></g></g><g clip-path="url(#f343cbb40d)"><path fill="#000000" d="M 90.226562 661.117188 L 1485.199219 661.117188 L 1485.199219 874.867188 L 90.226562 874.867188 L 90.226562 661.117188 " fill-opacity="1" fill-rule="nonzero"/></g><g fill="#ffffff" fill-opacity="1"><g transform="translate(14.877689, 792.750032)"><g><path d="M 24.558594 0 C 25.214844 0 25.578125 -0.4375 25.578125 -1.308594 L 25.578125 -7.519531 C 25.578125 -8.394531 25.214844 -8.757812 24.558594 -8.757812 L 12.28125 -8.757812 L 12.28125 -48.867188 C 12.28125 -49.738281 11.917969 -50.28125 11.082031 -50.28125 L 3.816406 -50.28125 C 3.015625 -50.28125 2.617188 -49.738281 2.617188 -48.867188 L 2.617188 -1.378906 C 2.617188 -0.507812 3.015625 0 3.851562 0 Z M 24.558594 0 "/></g></g></g><g fill="#ffffff" fill-opacity="1"><g transform="translate(67.372054, 792.750032)"><g><path d="M 8.5 -48.867188 C 8.5 -49.554688 8.429688 -50.246094 7.628906 -50.246094 L 3.707031 -50.246094 C 3.125 -50.246094 2.652344 -49.738281 2.652344 -48.867188 L 2.652344 -36.695312 C 2.652344 -36.003906 2.726562 -35.351562 3.414062 -35.351562 L 7.703125 -35.351562 C 8.210938 -35.351562 8.5 -35.679688 8.5 -36.550781 Z M 8.5 -48.867188 "/></g></g></g><g fill="#ffffff" fill-opacity="1"><g transform="translate(104.644462, 792.750032)"><g><path d="M 11.988281 -37.929688 C 11.988281 -40.21875 13.40625 -42.289062 15.878906 -42.289062 C 18.3125 -42.289062 19.726562 -40.21875 19.726562 -37.929688 L 19.726562 -20.453125 L 11.988281 -20.453125 Z M 29.429688 -38.476562 C 29.429688 -45.449219 23.105469 -51.082031 15.839844 -51.082031 C 8.574219 -51.082031 2.289062 -45.449219 2.289062 -38.476562 L 2.289062 -1.417969 C 2.289062 -0.652344 2.6875 0 3.234375 0 L 10.898438 0 C 11.773438 0 11.988281 -0.617188 11.988281 -1.417969 L 11.988281 -11.988281 L 19.726562 -11.988281 L 19.726562 -1.453125 C 19.726562 -0.691406 20.164062 0 20.890625 0 L 28.265625 0 C 29.101562 0 29.429688 -0.726562 29.429688 -1.453125 Z M 29.429688 -38.476562 "/></g></g></g><g fill="#ffffff" fill-opacity="1"><g transform="translate(162.479235, 792.750032)"><g><path d="M 19.363281 -12.097656 C 19.363281 -9.808594 17.65625 -7.957031 15.332031 -7.957031 C 13.1875 -7.957031 11.480469 -9.699219 11.480469 -12.28125 L 11.480469 -38.113281 C 11.480469 -40.4375 12.96875 -42.328125 15.296875 -42.328125 C 17.765625 -42.328125 19.183594 -40.183594 19.183594 -38.003906 L 19.183594 -34.804688 C 19.183594 -33.824219 19.402344 -33.425781 20.238281 -33.425781 L 27.101562 -33.425781 C 27.9375 -33.425781 28.230469 -33.859375 28.230469 -34.953125 L 28.230469 -38.257812 C 28.230469 -42.871094 25.578125 -51.046875 15.367188 -51.046875 C 8.066406 -51.046875 1.816406 -46.324219 1.816406 -38.4375 L 1.816406 -11.808594 C 1.816406 -3.777344 8.175781 0.800781 15.332031 0.800781 C 22.632812 0.800781 28.449219 -3.925781 28.449219 -11.808594 L 28.449219 -25.796875 C 28.449219 -26.667969 28.011719 -27.175781 27.140625 -27.175781 L 16.675781 -27.175781 C 15.949219 -27.175781 15.585938 -26.738281 15.585938 -25.90625 L 15.585938 -20.382812 C 15.585938 -19.511719 15.949219 -19.148438 16.675781 -19.148438 L 19.363281 -19.148438 Z M 19.363281 -12.097656 "/></g></g></g><g fill="#ffffff" fill-opacity="1"><g transform="translate(218.715531, 792.750032)"><g><path d="M 12.28125 -8.757812 L 12.28125 -21.074219 L 22.890625 -21.074219 C 23.578125 -21.074219 24.050781 -21.4375 24.050781 -22.308594 L 24.050781 -28.519531 C 24.050781 -29.429688 23.507812 -29.792969 22.890625 -29.792969 L 12.28125 -29.792969 L 12.28125 -41.453125 L 25.578125 -41.453125 C 26.230469 -41.453125 26.59375 -41.890625 26.59375 -42.761719 L 26.59375 -48.9375 C 26.59375 -49.847656 26.230469 -50.28125 25.578125 -50.28125 L 3.851562 -50.28125 C 3.089844 -50.28125 2.617188 -49.738281 2.617188 -48.867188 L 2.617188 -1.378906 C 2.617188 -0.507812 3.015625 0 3.851562 0 L 25.757812 0 C 26.339844 0 26.8125 -0.398438 26.8125 -1.273438 L 26.8125 -7.519531 C 26.8125 -8.355469 26.339844 -8.757812 25.757812 -8.757812 Z M 12.28125 -8.757812 "/></g></g></g><g fill="#ffffff" fill-opacity="1"><g transform="translate(272.481426, 792.750032)"><g><path d="M 28.265625 0 C 29.066406 0 29.429688 -0.726562 29.429688 -1.453125 L 29.429688 -38.476562 C 29.429688 -45.449219 23.105469 -51.082031 15.839844 -51.082031 C 8.574219 -51.082031 2.289062 -45.449219 2.289062 -38.476562 L 2.289062 -1.417969 C 2.289062 -0.652344 2.6875 0 3.234375 0 L 10.898438 0 C 11.734375 0 11.988281 -0.617188 11.988281 -1.417969 L 11.988281 -37.929688 C 11.988281 -40.21875 13.40625 -42.289062 15.878906 -42.289062 C 18.3125 -42.289062 19.726562 -40.21875 19.726562 -37.929688 L 19.726562 -1.453125 C 19.726562 -0.691406 20.164062 0 20.890625 0 Z M 28.265625 0 "/></g></g></g><g fill="#ffffff" fill-opacity="1"><g transform="translate(330.316199, 792.750032)"><g><path d="M 28.230469 -38.257812 C 28.230469 -44.652344 24.195312 -51.046875 15.367188 -51.046875 C 7.449219 -51.046875 1.816406 -45.632812 1.816406 -38.4375 L 1.816406 -11.808594 C 1.816406 -3.925781 8.066406 0.800781 15.367188 0.800781 C 22.632812 0.800781 28.449219 -3.925781 28.449219 -11.808594 L 28.449219 -16.75 C 28.449219 -17.839844 28.085938 -18.09375 27.25 -18.09375 L 20.453125 -18.09375 C 19.621094 -18.09375 19.363281 -17.765625 19.363281 -16.675781 L 19.363281 -12.351562 C 19.363281 -10.0625 18.09375 -7.957031 15.441406 -7.957031 C 12.933594 -7.957031 11.480469 -10.0625 11.480469 -12.351562 L 11.480469 -38.039062 C 11.480469 -40.328125 13.078125 -42.328125 15.441406 -42.328125 C 17.839844 -42.328125 19.183594 -40.109375 19.183594 -37.964844 L 19.183594 -34.585938 C 19.183594 -33.570312 19.4375 -33.132812 20.308594 -33.132812 L 27.066406 -33.132812 C 28.011719 -33.132812 28.230469 -33.605469 28.230469 -34.734375 Z M 28.230469 -38.257812 "/></g></g></g><g fill="#ffffff" fill-opacity="1"><g transform="translate(386.26185, 792.750032)"><g><path d="M 12.28125 -8.757812 L 12.28125 -21.074219 L 22.890625 -21.074219 C 23.578125 -21.074219 24.050781 -21.4375 24.050781 -22.308594 L 24.050781 -28.519531 C 24.050781 -29.429688 23.507812 -29.792969 22.890625 -29.792969 L 12.28125 -29.792969 L 12.28125 -41.453125 L 25.578125 -41.453125 C 26.230469 -41.453125 26.59375 -41.890625 26.59375 -42.761719 L 26.59375 -48.9375 C 26.59375 -49.847656 26.230469 -50.28125 25.578125 -50.28125 L 3.851562 -50.28125 C 3.089844 -50.28125 2.617188 -49.738281 2.617188 -48.867188 L 2.617188 -1.378906 C 2.617188 -0.507812 3.015625 0 3.851562 0 L 25.757812 0 C 26.339844 0 26.8125 -0.398438 26.8125 -1.273438 L 26.8125 -7.519531 C 26.8125 -8.355469 26.339844 -8.757812 25.757812 -8.757812 Z M 12.28125 -8.757812 "/></g></g></g><g fill="#ffffff" fill-opacity="1"><g transform="translate(440.027768, 792.750032)"><g/></g></g><g fill="#ffffff" fill-opacity="1"><g transform="translate(483.003854, 792.750032)"><g><path d="M 12.28125 -41.453125 L 15.878906 -41.453125 C 18.347656 -41.453125 20.054688 -40.039062 20.054688 -36.984375 L 20.054688 -13.1875 C 20.054688 -10.71875 18.492188 -8.828125 16.058594 -8.757812 L 12.28125 -8.757812 Z M 2.617188 -1.378906 C 2.617188 -0.507812 3.015625 0 3.851562 0 L 16.53125 0 C 23.941406 -0.0742188 29.71875 -4.542969 29.71875 -12.898438 L 29.71875 -37.386719 C 29.71875 -45.707031 23.980469 -50.210938 16.457031 -50.28125 L 3.851562 -50.28125 C 3.089844 -50.28125 2.617188 -49.738281 2.617188 -48.867188 Z M 2.617188 -1.378906 "/></g></g></g><g fill="#ffffff" fill-opacity="1"><g transform="translate(540.656987, 792.750032)"><g><path d="M 12.28125 -8.757812 L 12.28125 -21.074219 L 22.890625 -21.074219 C 23.578125 -21.074219 24.050781 -21.4375 24.050781 -22.308594 L 24.050781 -28.519531 C 24.050781 -29.429688 23.507812 -29.792969 22.890625 -29.792969 L 12.28125 -29.792969 L 12.28125 -41.453125 L 25.578125 -41.453125 C 26.230469 -41.453125 26.59375 -41.890625 26.59375 -42.761719 L 26.59375 -48.9375 C 26.59375 -49.847656 26.230469 -50.28125 25.578125 -50.28125 L 3.851562 -50.28125 C 3.089844 -50.28125 2.617188 -49.738281 2.617188 -48.867188 L 2.617188 -1.378906 C 2.617188 -0.507812 3.015625 0 3.851562 0 L 25.757812 0 C 26.339844 0 26.8125 -0.398438 26.8125 -1.273438 L 26.8125 -7.519531 C 26.8125 -8.355469 26.339844 -8.757812 25.757812 -8.757812 Z M 12.28125 -8.757812 "/></g></g></g><g fill="#ffffff" fill-opacity="1"><g transform="translate(594.422882, 792.750032)"><g/></g></g><g fill="#ffffff" fill-opacity="1"><g transform="translate(637.398968, 792.750032)"><g><path d="M 37.203125 -1.453125 C 37.203125 -0.691406 37.601562 0 38.367188 0 L 45.742188 0 C 46.539062 0 46.867188 -0.726562 46.867188 -1.453125 L 46.867188 -38.476562 C 46.867188 -45.449219 40.546875 -51.082031 33.28125 -51.082031 C 30.011719 -51.082031 26.921875 -49.957031 24.558594 -48.066406 C 22.164062 -49.957031 19.074219 -51.082031 15.839844 -51.082031 C 8.574219 -51.082031 2.289062 -45.449219 2.289062 -38.476562 L 2.289062 -1.417969 C 2.289062 -0.652344 2.726562 0 3.234375 0 L 10.898438 0 C 11.773438 0 11.988281 -0.617188 11.988281 -1.417969 L 11.988281 -37.929688 C 11.988281 -40.21875 13.40625 -42.289062 15.878906 -42.289062 C 18.3125 -42.289062 19.726562 -40.21875 19.726562 -37.929688 L 19.726562 -1.417969 C 19.726562 -0.652344 20.199219 0 20.710938 0 L 28.375 0 C 29.246094 0 29.429688 -0.617188 29.429688 -1.378906 L 29.429688 -38.074219 C 29.5 -40.292969 30.917969 -42.289062 33.316406 -42.289062 C 35.75 -42.289062 37.203125 -40.21875 37.203125 -37.929688 Z M 37.203125 -1.453125 "/></g></g></g><g fill="#ffffff" fill-opacity="1"><g transform="translate(712.671789, 792.750032)"><g><path d="M 11.988281 -37.929688 C 11.988281 -40.21875 13.40625 -42.289062 15.878906 -42.289062 C 18.3125 -42.289062 19.726562 -40.21875 19.726562 -37.929688 L 19.726562 -20.453125 L 11.988281 -20.453125 Z M 29.429688 -38.476562 C 29.429688 -45.449219 23.105469 -51.082031 15.839844 -51.082031 C 8.574219 -51.082031 2.289062 -45.449219 2.289062 -38.476562 L 2.289062 -1.417969 C 2.289062 -0.652344 2.6875 0 3.234375 0 L 10.898438 0 C 11.773438 0 11.988281 -0.617188 11.988281 -1.417969 L 11.988281 -11.988281 L 19.726562 -11.988281 L 19.726562 -1.453125 C 19.726562 -0.691406 20.164062 0 20.890625 0 L 28.265625 0 C 29.101562 0 29.429688 -0.726562 29.429688 -1.453125 Z M 29.429688 -38.476562 "/></g></g></g><g fill="#ffffff" fill-opacity="1"><g transform="translate(770.506562, 792.750032)"><g><path d="M 20.089844 -31.136719 C 20.089844 -28.664062 18.566406 -27.03125 15.660156 -27.03125 L 12.28125 -27.03125 L 12.28125 -41.453125 L 15.914062 -41.453125 C 18.421875 -41.453125 20.089844 -39.785156 20.089844 -37.167969 Z M 28.15625 -0.0351562 C 29.136719 -0.0351562 29.464844 -0.910156 29.464844 -1.5625 L 29.464844 -8.101562 C 29.464844 -15.367188 27.867188 -19.945312 24.597656 -22.707031 C 27.539062 -24.667969 29.792969 -27.648438 29.792969 -31.972656 L 29.792969 -37.167969 C 29.792969 -44.398438 24.160156 -50.28125 16.675781 -50.28125 L 3.851562 -50.28125 C 3.089844 -50.28125 2.617188 -49.738281 2.617188 -48.867188 L 2.617188 -1.34375 C 2.617188 -0.507812 2.980469 0 3.816406 0 L 11.082031 0 C 11.878906 0 12.28125 -0.507812 12.28125 -1.34375 L 12.28125 -19.546875 C 17.257812 -19.21875 19.800781 -16.277344 19.800781 -9.265625 L 19.800781 -1.671875 C 19.800781 -0.582031 20.636719 -0.0351562 21.472656 -0.0351562 Z M 28.15625 -0.0351562 "/></g></g></g><g fill="#ffffff" fill-opacity="1"><g transform="translate(828.377681, 792.750032)"><g><path d="M 23.617188 -25.25 C 27.46875 -28.449219 29.71875 -33.207031 29.71875 -39.382812 L 29.71875 -48.722656 C 29.71875 -49.375 29.390625 -50.28125 28.410156 -50.28125 L 21.691406 -50.28125 C 20.855469 -50.28125 20.019531 -49.703125 20.019531 -48.613281 L 20.019531 -40.472656 C 20.019531 -34.332031 18.273438 -30.082031 12.28125 -29.574219 L 12.28125 -48.867188 C 12.28125 -49.738281 11.917969 -50.28125 11.082031 -50.28125 L 3.851562 -50.28125 C 3.050781 -50.28125 2.617188 -49.738281 2.617188 -48.867188 L 2.617188 -1.378906 C 2.617188 -0.507812 3.015625 0 3.851562 0 L 11.117188 0 C 11.953125 0 12.28125 -0.507812 12.28125 -1.378906 L 12.28125 -20.453125 C 18.675781 -20.164062 20.527344 -15.839844 20.527344 -9.554688 L 20.527344 -1.636719 C 20.527344 -0.546875 21.328125 0 22.164062 0 L 28.921875 0 C 29.863281 0 30.226562 -0.871094 30.226562 -1.527344 L 30.226562 -10.679688 C 30.226562 -17.113281 27.792969 -22.054688 23.617188 -25.25 Z M 23.617188 -25.25 "/></g></g></g><g fill="#ffffff" fill-opacity="1"><g transform="translate(886.394095, 792.750032)"><g><path d="M 12.28125 -8.757812 L 12.28125 -21.074219 L 22.890625 -21.074219 C 23.578125 -21.074219 24.050781 -21.4375 24.050781 -22.308594 L 24.050781 -28.519531 C 24.050781 -29.429688 23.507812 -29.792969 22.890625 -29.792969 L 12.28125 -29.792969 L 12.28125 -41.453125 L 25.578125 -41.453125 C 26.230469 -41.453125 26.59375 -41.890625 26.59375 -42.761719 L 26.59375 -48.9375 C 26.59375 -49.847656 26.230469 -50.28125 25.578125 -50.28125 L 3.851562 -50.28125 C 3.089844 -50.28125 2.617188 -49.738281 2.617188 -48.867188 L 2.617188 -1.378906 C 2.617188 -0.507812 3.015625 0 3.851562 0 L 25.757812 0 C 26.339844 0 26.8125 -0.398438 26.8125 -1.273438 L 26.8125 -7.519531 C 26.8125 -8.355469 26.339844 -8.757812 25.757812 -8.757812 Z M 12.28125 -8.757812 "/></g></g></g><g fill="#ffffff" fill-opacity="1"><g transform="translate(940.15999, 792.750032)"><g><path d="M 24.234375 -41.453125 C 24.851562 -41.453125 25.285156 -41.890625 25.285156 -42.761719 L 25.285156 -48.976562 C 25.285156 -49.847656 24.851562 -50.28125 24.234375 -50.28125 L 1.015625 -50.28125 C 0.398438 -50.28125 -0.0351562 -49.8125 -0.0351562 -48.9375 L -0.0351562 -42.761719 C -0.0351562 -41.890625 0.398438 -41.453125 1.015625 -41.453125 L 7.773438 -41.453125 L 7.773438 -1.273438 C 7.773438 -0.4375 8.210938 0 8.828125 0 L 16.421875 0 C 17.003906 0 17.476562 -0.4375 17.476562 -1.273438 L 17.476562 -41.453125 Z M 24.234375 -41.453125 "/></g></g></g><g fill="#ffffff" fill-opacity="1"><g transform="translate(991.491864, 792.750032)"><g><path d="M 12.28125 -48.867188 C 12.28125 -49.738281 11.917969 -50.28125 11.082031 -50.28125 L 3.816406 -50.28125 C 3.050781 -50.28125 2.617188 -49.738281 2.617188 -48.867188 L 2.617188 -1.378906 C 2.617188 -0.507812 2.980469 0 3.816406 0 L 11.082031 0 C 11.917969 0 12.28125 -0.507812 12.28125 -1.378906 Z M 12.28125 -48.867188 "/></g></g></g><g fill="#ffffff" fill-opacity="1"><g transform="translate(1032.54255, 792.750032)"><g><path d="M 28.265625 0 C 29.066406 0 29.429688 -0.726562 29.429688 -1.453125 L 29.429688 -38.476562 C 29.429688 -45.449219 23.105469 -51.082031 15.839844 -51.082031 C 8.574219 -51.082031 2.289062 -45.449219 2.289062 -38.476562 L 2.289062 -1.417969 C 2.289062 -0.652344 2.6875 0 3.234375 0 L 10.898438 0 C 11.734375 0 11.988281 -0.617188 11.988281 -1.417969 L 11.988281 -37.929688 C 11.988281 -40.21875 13.40625 -42.289062 15.878906 -42.289062 C 18.3125 -42.289062 19.726562 -40.21875 19.726562 -37.929688 L 19.726562 -1.453125 C 19.726562 -0.691406 20.164062 0 20.890625 0 Z M 28.265625 0 "/></g></g></g><g fill="#ffffff" fill-opacity="1"><g transform="translate(1090.377323, 792.750032)"><g><path d="M 19.363281 -12.097656 C 19.363281 -9.808594 17.65625 -7.957031 15.332031 -7.957031 C 13.1875 -7.957031 11.480469 -9.699219 11.480469 -12.28125 L 11.480469 -38.113281 C 11.480469 -40.4375 12.96875 -42.328125 15.296875 -42.328125 C 17.765625 -42.328125 19.183594 -40.183594 19.183594 -38.003906 L 19.183594 -34.804688 C 19.183594 -33.824219 19.402344 -33.425781 20.238281 -33.425781 L 27.101562 -33.425781 C 27.9375 -33.425781 28.230469 -33.859375 28.230469 -34.953125 L 28.230469 -38.257812 C 28.230469 -42.871094 25.578125 -51.046875 15.367188 -51.046875 C 8.066406 -51.046875 1.816406 -46.324219 1.816406 -38.4375 L 1.816406 -11.808594 C 1.816406 -3.777344 8.175781 0.800781 15.332031 0.800781 C 22.632812 0.800781 28.449219 -3.925781 28.449219 -11.808594 L 28.449219 -25.796875 C 28.449219 -26.667969 28.011719 -27.175781 27.140625 -27.175781 L 16.675781 -27.175781 C 15.949219 -27.175781 15.585938 -26.738281 15.585938 -25.90625 L 15.585938 -20.382812 C 15.585938 -19.511719 15.949219 -19.148438 16.675781 -19.148438 L 19.363281 -19.148438 Z M 19.363281 -12.097656 "/></g></g></g><g fill="#ffffff" fill-opacity="1"><g transform="translate(1146.613585, 792.750032)"><g/></g></g><g fill="#ffffff" fill-opacity="1"><g transform="translate(1189.589717, 792.750032)"><g><path d="M 12.28125 -41.453125 L 15.878906 -41.453125 C 18.347656 -41.453125 20.054688 -40.039062 20.054688 -36.984375 L 20.054688 -13.1875 C 20.054688 -10.71875 18.492188 -8.828125 16.058594 -8.757812 L 12.28125 -8.757812 Z M 2.617188 -1.378906 C 2.617188 -0.507812 3.015625 0 3.851562 0 L 16.53125 0 C 23.941406 -0.0742188 29.71875 -4.542969 29.71875 -12.898438 L 29.71875 -37.386719 C 29.71875 -45.707031 23.980469 -50.210938 16.457031 -50.28125 L 3.851562 -50.28125 C 3.089844 -50.28125 2.617188 -49.738281 2.617188 -48.867188 Z M 2.617188 -1.378906 "/></g></g></g><g fill="#ffffff" fill-opacity="1"><g transform="translate(1247.242849, 792.750032)"><g><path d="M 12.28125 -48.867188 C 12.28125 -49.738281 11.917969 -50.28125 11.082031 -50.28125 L 3.816406 -50.28125 C 3.050781 -50.28125 2.617188 -49.738281 2.617188 -48.867188 L 2.617188 -1.378906 C 2.617188 -0.507812 2.980469 0 3.816406 0 L 11.082031 0 C 11.917969 0 12.28125 -0.507812 12.28125 -1.378906 Z M 12.28125 -48.867188 "/></g></g></g><g fill="#ffffff" fill-opacity="1"><g transform="translate(1288.293535, 792.750032)"><g><path d="M 19.363281 -12.097656 C 19.363281 -9.808594 17.65625 -7.957031 15.332031 -7.957031 C 13.1875 -7.957031 11.480469 -9.699219 11.480469 -12.28125 L 11.480469 -38.113281 C 11.480469 -40.4375 12.96875 -42.328125 15.296875 -42.328125 C 17.765625 -42.328125 19.183594 -40.183594 19.183594 -38.003906 L 19.183594 -34.804688 C 19.183594 -33.824219 19.402344 -33.425781 20.238281 -33.425781 L 27.101562 -33.425781 C 27.9375 -33.425781 28.230469 -33.859375 28.230469 -34.953125 L 28.230469 -38.257812 C 28.230469 -42.871094 25.578125 -51.046875 15.367188 -51.046875 C 8.066406 -51.046875 1.816406 -46.324219 1.816406 -38.4375 L 1.816406 -11.808594 C 1.816406 -3.777344 8.175781 0.800781 15.332031 0.800781 C 22.632812 0.800781 28.449219 -3.925781 28.449219 -11.808594 L 28.449219 -25.796875 C 28.449219 -26.667969 28.011719 -27.175781 27.140625 -27.175781 L 16.675781 -27.175781 C 15.949219 -27.175781 15.585938 -26.738281 15.585938 -25.90625 L 15.585938 -20.382812 C 15.585938 -19.511719 15.949219 -19.148438 16.675781 -19.148438 L 19.363281 -19.148438 Z M 19.363281 -12.097656 "/></g></g></g><g fill="#ffffff" fill-opacity="1"><g transform="translate(1344.529797, 792.750032)"><g><path d="M 12.28125 -48.867188 C 12.28125 -49.738281 11.917969 -50.28125 11.082031 -50.28125 L 3.816406 -50.28125 C 3.050781 -50.28125 2.617188 -49.738281 2.617188 -48.867188 L 2.617188 -1.378906 C 2.617188 -0.507812 2.980469 0 3.816406 0 L 11.082031 0 C 11.917969 0 12.28125 -0.507812 12.28125 -1.378906 Z M 12.28125 -48.867188 "/></g></g></g><g fill="#ffffff" fill-opacity="1"><g transform="translate(1385.580484, 792.750032)"><g><path d="M 24.234375 -41.453125 C 24.851562 -41.453125 25.285156 -41.890625 25.285156 -42.761719 L 25.285156 -48.976562 C 25.285156 -49.847656 24.851562 -50.28125 24.234375 -50.28125 L 1.015625 -50.28125 C 0.398438 -50.28125 -0.0351562 -49.8125 -0.0351562 -48.9375 L -0.0351562 -42.761719 C -0.0351562 -41.890625 0.398438 -41.453125 1.015625 -41.453125 L 7.773438 -41.453125 L 7.773438 -1.273438 C 7.773438 -0.4375 8.210938 0 8.828125 0 L 16.421875 0 C 17.003906 0 17.476562 -0.4375 17.476562 -1.273438 L 17.476562 -41.453125 Z M 24.234375 -41.453125 "/></g></g></g><g fill="#ffffff" fill-opacity="1"><g transform="translate(1436.912358, 792.750032)"><g><path d="M 11.988281 -37.929688 C 11.988281 -40.21875 13.40625 -42.289062 15.878906 -42.289062 C 18.3125 -42.289062 19.726562 -40.21875 19.726562 -37.929688 L 19.726562 -20.453125 L 11.988281 -20.453125 Z M 29.429688 -38.476562 C 29.429688 -45.449219 23.105469 -51.082031 15.839844 -51.082031 C 8.574219 -51.082031 2.289062 -45.449219 2.289062 -38.476562 L 2.289062 -1.417969 C 2.289062 -0.652344 2.6875 0 3.234375 0 L 10.898438 0 C 11.773438 0 11.988281 -0.617188 11.988281 -1.417969 L 11.988281 -11.988281 L 19.726562 -11.988281 L 19.726562 -1.453125 C 19.726562 -0.691406 20.164062 0 20.890625 0 L 28.265625 0 C 29.101562 0 29.429688 -0.726562 29.429688 -1.453125 Z M 29.429688 -38.476562 "/></g></g></g><g fill="#ffffff" fill-opacity="1"><g transform="translate(1494.747131, 792.750032)"><g><path d="M 24.558594 0 C 25.214844 0 25.578125 -0.4375 25.578125 -1.308594 L 25.578125 -7.519531 C 25.578125 -8.394531 25.214844 -8.757812 24.558594 -8.757812 L 12.28125 -8.757812 L 12.28125 -48.867188 C 12.28125 -49.738281 11.917969 -50.28125 11.082031 -50.28125 L 3.816406 -50.28125 C 3.015625 -50.28125 2.617188 -49.738281 2.617188 -48.867188 L 2.617188 -1.378906 C 2.617188 -0.507812 3.015625 0 3.851562 0 Z M 24.558594 0 "/></g></g></g><path stroke-linecap="butt" transform="matrix(0.749694, 0, 0, 0.75, 326.131501, 671.389482)" fill="none" stroke-linejoin="miter" d="M 0.00174926 4.001524 L 1187.486193 4.001524 " stroke="#ffffff" stroke-width="8" stroke-opacity="1" stroke-miterlimit="4"/><path stroke-linecap="butt" transform="matrix(0.749694, 0, 0, 0.75, 326.131501, 857.404946)" fill="none" stroke-linejoin="miter" d="M 0.00174926 4.001738 L 1187.486193 4.001738 " stroke="#ffffff" stroke-width="8" stroke-opacity="1" stroke-miterlimit="4"/></svg>